#N canvas 0 50 450 300 12;
#X obj 108 302 line~;
#X obj 108 204 i 0;
#X msg 108 263 0 \, 1 \$1;
#X floatatom 126 91 5 0 0 0 - - -;
#X obj 170 203 i 0;
#X obj 287 202 i 0;
#X obj 170 149 delay;
#X floatatom 188 91 5 0 0 0 - - -;
#X floatatom 305 91 5 0 0 0 - - -;
#X obj 170 177 t b b;
#X msg 170 263 \$2 \$1;
#X obj 170 234 pack 0 0;
#X obj 223 203 f 0;
#X floatatom 241 91 5 0 0 0 - - -;
#X obj 60 46 inlet;
#X text 44 23 key down;
#X text 127 23 A;
#X text 186 23 D;
#X text 238 23 S;
#X text 302 24 R;
#X obj 108 333 outlet~;
#X msg 287 261 0 \$1;
#X obj 126 46 inlet;
#X obj 188 45 inlet;
#X obj 241 45 inlet;
#X obj 305 45 inlet;
#X obj 60 109 t b;
#X obj 60 75 sel 0;
#X connect 0 0 20 0;
#X connect 1 0 2 0;
#X connect 2 0 0 0;
#X connect 3 0 1 1;
#X connect 3 0 6 1;
#X connect 4 0 11 0;
#X connect 5 0 21 0;
#X connect 6 0 9 0;
#X connect 7 0 4 1;
#X connect 8 0 5 1;
#X connect 9 0 4 0;
#X connect 9 1 12 0;
#X connect 10 0 0 0;
#X connect 11 0 10 0;
#X connect 12 0 11 1;
#X connect 13 0 12 1;
#X connect 14 0 27 0;
#X connect 21 0 0 0;
#X connect 22 0 3 0;
#X connect 23 0 7 0;
#X connect 24 0 13 0;
#X connect 25 0 8 0;
#X connect 26 0 1 0;
#X connect 26 0 6 0;
#X connect 27 0 5 0;
#X connect 27 1 26 0;
