#N canvas -1915 266 879 632 12;
#X obj 40 119 spigot;
#X obj 40 101 bng 15 250 50 0 empty empty empty 17 7 0 10 -262144 -1
-1;
#X obj 89 95 - 1;
#X obj 89 119 abs;
#X floatatom 89 143 5 0 0 0 - - -;
#X obj 40 43 inlet;
#X obj 89 43 inlet;
#X obj 40 167 outlet;
#X floatatom 89 67 5 0 0 0 - - -;
#X connect 0 0 7 0;
#X connect 1 0 0 0;
#X connect 2 0 3 0;
#X connect 3 0 4 0;
#X connect 4 0 0 1;
#X connect 5 0 1 0;
#X connect 5 0 8 0;
#X connect 6 0 8 0;
#X connect 8 0 2 0;
