#N canvas -1928 -8 1920 1037 12;
#X obj 13 297 *~;
#X obj 13 363 outlet~;
#X obj 13 246 osc~;
#X msg 59 214 0;
#X obj 13 214 line~;
#X obj 114 263 A_D_S_R;
#X obj 135 209 unpack 0 0 0 0;
#X obj 114 179 tgl 15 0 empty empty empty 17 7 0 10 -262144 -1 -1 0
1;
#X obj 13 119 AndNOt;
#X obj 190 124 loadbang;
#N canvas 0 50 450 250 (subpatch) 0;
#X array \$0-basedrum 16 float 3;
#A 0 1 0 1 0 0 0 0 0 1 0 1 0 0 0 1 0;
#X coords 0 1 16 0 200 15 1 0 0;
#X restore 286 143 graph;
#X obj 13 38 tabread \$0-basedrum;
#X obj 13 62 sel 1;
#X obj 13 94 t b;
#X obj 114 150 delay;
#X floatatom 146 114 5 0 0 0 - - -;
#X msg 286 235 0 0 0 0 0 0 0 0 0 0 0 0 0 0 0 0;
#X obj 286 381 array set \$0-basedrum;
#X msg 296 260 1 0 0 0 0 0 0 1 0 0 1 0 0 0 0 0;
#X msg 312 306 1 0 1 0 0 0 0 0 1 0 1 0 0 0 1 0;
#X msg 304 283 1 0 1 0 0 0 0 0 0 0 1 0 0 0 1 0;
#X obj 286 200 sel 0 1 2 3 4 5;
#X msg 330 351 1 0 0 1 0 0 0 0 1 0 1 0 0 0 0 0;
#X obj 13 15 r tick-\$2;
#X obj 146 66 r beat-\$2;
#X obj 286 177 r BDP-\$1;
#X msg 135 185 10 50 0.5 20;
#X obj 13 321 *~ 2;
#X msg 13 190 90 \, 40 \$1;
#X obj 146 90 * 1.6;
#X msg 320 328 1 0 0 1 0 0 0 0 0 1 0 1 0 0 0 0;
#X obj 225 100 print;
#X connect 0 0 27 0;
#X connect 2 0 0 0;
#X connect 3 0 2 1;
#X connect 4 0 2 0;
#X connect 5 0 0 1;
#X connect 6 0 5 1;
#X connect 6 1 5 2;
#X connect 6 2 5 3;
#X connect 6 3 5 4;
#X connect 7 0 5 0;
#X connect 7 0 8 1;
#X connect 8 0 7 0;
#X connect 8 0 14 0;
#X connect 8 0 3 0;
#X connect 8 0 15 0;
#X connect 9 0 26 0;
#X connect 11 0 12 0;
#X connect 12 0 13 0;
#X connect 13 0 8 0;
#X connect 14 0 7 0;
#X connect 15 0 14 1;
#X connect 15 0 28 0;
#X connect 16 0 17 0;
#X connect 18 0 17 0;
#X connect 19 0 17 0;
#X connect 20 0 17 0;
#X connect 21 0 16 0;
#X connect 21 1 18 0;
#X connect 21 2 20 0;
#X connect 21 3 19 0;
#X connect 21 4 30 0;
#X connect 21 5 22 0;
#X connect 22 0 17 0;
#X connect 23 0 11 0;
#X connect 24 0 29 0;
#X connect 25 0 21 0;
#X connect 26 0 6 0;
#X connect 27 0 1 0;
#X connect 28 0 4 0;
#X connect 29 0 15 0;
#X connect 29 0 31 0;
#X connect 30 0 17 0;
