#N canvas 601 0 1310 1028 12;
#N canvas 84 132 549 829 bassdrum 1;
#X obj 81 27 inlet;
#X obj 151 104 line~;
#X msg 151 76 1 \, 0 100;
#X obj 81 51 t b b;
#X obj 67 154 *~;
#X obj 67 178 outlet~;
#X obj 67 116 osc~;
#X obj 11 30 loadbang;
#X floatatom 11 78 5 0 0 0 - - -;
#X msg 11 54 80;
#X msg 113 84 0;
#X connect 0 0 3 0;
#X connect 1 0 4 1;
#X connect 2 0 1 0;
#X connect 3 0 2 0;
#X connect 3 1 10 0;
#X connect 4 0 5 0;
#X connect 6 0 4 0;
#X connect 7 0 9 0;
#X connect 8 0 6 0;
#X connect 9 0 8 0;
#X connect 10 0 6 1;
#X restore 135 245 pd bassdrum;
#X obj 135 64 tgl 15 0 empty empty empty 17 7 0 10 -262144 -1 -1 0
1;
#X obj 151 115 i;
#X obj 179 115 + 1;
#X obj 207 115 % 16;
#X floatatom 151 140 5 0 0 0 - - -;
#X obj 151 164 hradio 15 1 0 16 empty empty empty 0 -8 0 10 -262144
-1 -1 6;
#N canvas 0 50 863 510 (subpatch) 0;
#X array basedrum 16 float 3;
#A 0 1 0 0 1 0 0 1 0 1 0 0 1 0 0 1 0;
#X coords 0 1 16 0 200 15 1 0 0;
#X restore 239 16 graph;
#X obj 172 286 dac~;
#X obj 135 218 spigot;
#X msg 246 115 0;
#N canvas 0 50 863 510 (subpatch) 0;
#X array snaredrum 16 float 3;
#A 0 0 1 1 0 1 1 0 1 0 1 1 0 1 1 0 1;
#X coords 0 1 16 0 200 15 1 0 0;
#X restore 239 47 graph;
#X obj 272 188 tabread snaredrum;
#N canvas 0 50 707 829 snaredrum 1;
#X obj 107 44 inlet;
#X obj 177 121 line~;
#X msg 177 93 1 \, 0 100;
#X obj 107 68 t b b;
#X obj 93 171 *~;
#X obj 93 195 outlet~;
#X obj 93 133 osc~;
#X msg 139 101 0;
#X obj 39 37 loadbang;
#X floatatom 39 85 5 0 0 0 - - -;
#X msg 39 61 240;
#X connect 0 0 3 0;
#X connect 1 0 4 1;
#X connect 2 0 1 0;
#X connect 3 0 2 0;
#X connect 3 1 7 0;
#X connect 4 0 5 0;
#X connect 6 0 4 0;
#X connect 7 0 6 1;
#X connect 8 0 10 0;
#X connect 9 0 6 0;
#X connect 10 0 9 0;
#X restore 221 245 pd snaredrum;
#X obj 186 218 spigot;
#X obj 151 188 tabread basedrum;
#X obj 23 381 array set basedrum;
#X obj 251 381 array set snaredrum;
#X msg 23 312 1 0 0 1 0 0 1 0 1 0 0 1 0 0 1 0;
#X msg 251 312 0 1 1 0 1 1 0 1 0 1 1 0 1 1 0 1;
#X obj 135 84 metro 200;
#X connect 0 0 8 0;
#X connect 0 0 8 1;
#X connect 1 0 20 0;
#X connect 2 0 3 0;
#X connect 2 0 5 0;
#X connect 3 0 4 0;
#X connect 4 0 2 1;
#X connect 5 0 6 0;
#X connect 6 0 12 0;
#X connect 6 0 15 0;
#X connect 9 0 0 0;
#X connect 10 0 5 0;
#X connect 12 0 14 1;
#X connect 13 0 8 0;
#X connect 13 0 8 1;
#X connect 14 0 13 0;
#X connect 15 0 9 1;
#X connect 18 0 16 0;
#X connect 19 0 17 0;
#X connect 20 0 2 0;
#X connect 20 0 9 0;
#X connect 20 0 14 0;
