#N canvas -1928 -8 1920 1037 12;
#X obj 48 23 inlet;
#X obj 48 47 t f b;
#X obj 48 247 *~;
#X obj 48 453 outlet~;
#X obj 316 184 A_D_S_R;
#X floatatom 328 156 5 0 0 0 - - -;
#X floatatom 367 156 5 0 0 0 - - -;
#X floatatom 406 156 5 0 0 0 - - -;
#X floatatom 445 156 5 0 0 0 - - -;
#X obj 229 67 tgl 15 0 empty empty empty 17 7 0 10 -262144 -1 -1 0
1;
#X obj 48 340 +~;
#X obj 229 45 delay 80;
#X obj 85 347 noise~;
#X obj 48 419 +~;
#X obj 84 400 *~;
#X obj 366 72 loadbang;
#X obj 366 122 unpack 0 0 0 0;
#X msg 366 98 10 40 0.1 10;
#X obj 85 374 *~ 0.2;
#X obj 48 133 phasor~;
#X obj 161 133 phasor~;
#X msg 94 106 0;
#X obj 153 91 bng 15 250 50 0 empty empty empty 17 7 0 10 -262144 -1
-1;
#X obj 48 186 +~;
#X floatatom 48 107 5 0 0 0 - - -;
#X obj 48 160 expr~ $v1 > 0.5;
#X msg 207 106 0.3;
#X obj 161 160 expr~ $v1 > 0.5;
#X obj 48 210 -~ 1;
#X obj 75 319 *~ 0.5;
#X obj 75 269 delwrite~ \$0-del 15;
#X obj 75 295 delread~ \$0-del 15;
#X obj 190 -10 r end;
#X obj 190 14 sel 1;
#X msg 190 38 0;
#X obj 117 53 AndNot;
#X connect 0 0 1 0;
#X connect 1 0 24 0;
#X connect 1 1 35 0;
#X connect 2 0 10 0;
#X connect 4 0 2 1;
#X connect 5 0 4 1;
#X connect 6 0 4 2;
#X connect 7 0 4 3;
#X connect 8 0 4 4;
#X connect 9 0 4 0;
#X connect 9 0 14 1;
#X connect 9 0 35 1;
#X connect 10 0 13 0;
#X connect 10 0 30 0;
#X connect 11 0 9 0;
#X connect 12 0 18 0;
#X connect 13 0 3 0;
#X connect 14 0 13 1;
#X connect 15 0 17 0;
#X connect 15 0 22 0;
#X connect 16 0 5 0;
#X connect 16 1 6 0;
#X connect 16 2 7 0;
#X connect 16 3 8 0;
#X connect 17 0 16 0;
#X connect 18 0 14 0;
#X connect 19 0 25 0;
#X connect 20 0 27 0;
#X connect 21 0 19 1;
#X connect 22 0 21 0;
#X connect 22 0 26 0;
#X connect 23 0 28 0;
#X connect 24 0 19 0;
#X connect 24 0 20 0;
#X connect 25 0 23 0;
#X connect 26 0 20 1;
#X connect 27 0 23 1;
#X connect 28 0 2 0;
#X connect 29 0 10 1;
#X connect 31 0 29 0;
#X connect 32 0 33 0;
#X connect 33 0 34 0;
#X connect 34 0 9 0;
#X connect 35 0 11 0;
#X connect 35 0 9 0;
