#N canvas -1928 -8 1920 1037 12;
#X obj 50 20 inlet;
#X obj 50 44 t f b;
#X obj 50 196 *~;
#X obj 50 402 outlet~;
#X obj 83 69 phasor~;
#X obj 242 177 A_D_S_R;
#X floatatom 254 149 5 0 0 0 - - -;
#X floatatom 293 149 5 0 0 0 - - -;
#X floatatom 332 149 5 0 0 0 - - -;
#X floatatom 371 149 5 0 0 0 - - -;
#X obj 201 125 tgl 15 0 empty empty empty 17 7 0 10 -262144 -1 -1 0
1;
#X obj 50 289 +~;
#X obj 50 68 osc~;
#X obj 77 222 delwrite~ \$0-del 30;
#X obj 77 244 delread~ \$0-del 30;
#X obj 50 117 *~;
#X obj 238 106 delay 80;
#X obj 87 296 noise~;
#X obj 50 368 +~;
#X obj 86 349 *~;
#X obj 87 323 *~ 0.2;
#X obj 83 96 expr~ $v1 > 0.2;
#X msg 385 80 10 70 0.3 10;
#X obj 385 54 loadbang;
#X obj 385 104 unpack 0 0 0 0;
#X obj 77 268 *~ 0.6;
#X obj 309 16 r end;
#X obj 309 40 sel 1;
#X msg 309 64 0;
#X obj 201 80 AndNot;
#X connect 0 0 1 0;
#X connect 1 0 4 0;
#X connect 1 0 12 0;
#X connect 1 1 29 0;
#X connect 2 0 11 0;
#X connect 4 0 21 0;
#X connect 5 0 2 1;
#X connect 6 0 5 1;
#X connect 7 0 5 2;
#X connect 8 0 5 3;
#X connect 9 0 5 4;
#X connect 10 0 5 0;
#X connect 10 0 19 1;
#X connect 10 0 29 1;
#X connect 11 0 18 0;
#X connect 11 0 13 0;
#X connect 12 0 15 0;
#X connect 14 0 25 0;
#X connect 15 0 2 0;
#X connect 16 0 10 0;
#X connect 17 0 20 0;
#X connect 18 0 3 0;
#X connect 19 0 18 1;
#X connect 20 0 19 0;
#X connect 21 0 15 1;
#X connect 22 0 24 0;
#X connect 23 0 22 0;
#X connect 24 0 6 0;
#X connect 24 1 7 0;
#X connect 24 2 8 0;
#X connect 24 3 9 0;
#X connect 25 0 11 1;
#X connect 26 0 27 0;
#X connect 27 0 28 0;
#X connect 28 0 10 0;
#X connect 29 0 10 0;
#X connect 29 0 16 0;
