#N canvas -1928 -8 1920 1037 12;
#X obj 81 6 inlet~;
#X obj 232 7 inlet;
#X obj 81 190 expr~ round($v1 / $f2);
#X obj 81 214 *~;
#X obj 81 238 outlet~;
#X obj 232 36 int;
#X floatatom 232 60 5 0 0 0 - - -;
#X obj 232 83 expr pow(2 \, $f1) - 1;
#X floatatom 232 107 5 0 0 0 - - -;
#X obj 232 130 expr 1 / $f1;
#X text 278 8 bit depth;
#X text 274 107 resolution;
#X floatatom 232 154 5 0 0 0 - - -;
#X connect 0 0 2 0;
#X connect 1 0 5 0;
#X connect 2 0 3 0;
#X connect 3 0 4 0;
#X connect 5 0 6 0;
#X connect 6 0 7 0;
#X connect 7 0 8 0;
#X connect 8 0 9 0;
#X connect 9 0 12 0;
#X connect 12 0 2 1;
#X connect 12 0 3 1;
