#N canvas -1128 361 723 511 12;
#X obj 53 27 inlet~;
#X obj 243 125 osc~;
#X floatatom 243 99 5 0 0 0 - - -;
#X obj 243 151 expr~ ($v1 + 1) / 2;
#X obj 243 175 *~;
#X floatatom 299 176 5 0 0 0 - - -;
#X obj 243 199 +~ 5;
#X obj 243 272 *~;
#X obj 274 277 tgl 15 0 empty empty empty 17 7 0 10 -262144 -1 -1 1
1;
#X obj 243 25 inlet;
#X obj 299 25 inlet;
#X obj 243 296 outlet~;
#X obj 53 65 delwrite~ buffer 100;
#X obj 101 248 delread4~ buffer;
#X obj 243 248 delread4~ buffer;
#X connect 0 0 12 0;
#X connect 1 0 3 0;
#X connect 2 0 1 0;
#X connect 3 0 4 0;
#X connect 4 0 6 0;
#X connect 5 0 4 1;
#X connect 6 0 14 0;
#X connect 7 0 11 0;
#X connect 8 0 7 1;
#X connect 9 0 2 0;
#X connect 10 0 5 0;
#X connect 13 0 7 0;
#X connect 14 0 7 0;
