#N canvas 0 50 721 688 12;
#X obj 70 192 +~;
#X obj 70 223 osc~;
#X obj 70 33 inlet;
#X obj 116 33 inlet;
#X obj 209 32 inlet;
#X text 5 8 Carry Freq.;
#X obj 116 150 *~;
#X obj 116 110 osc~;
#X text 91 8 Modulation Freq.;
#X text 212 9 Modulation Index;
#X obj 70 255 outlet~;
#X connect 0 0 1 0;
#X connect 1 0 10 0;
#X connect 2 0 0 0;
#X connect 3 0 7 0;
#X connect 4 0 6 1;
#X connect 6 0 0 1;
#X connect 7 0 6 0;
