#N canvas -1928 -8 1920 1037 12;
#X obj 59 357 outlet~;
#X obj 369 256 FM;
#X obj 59 216 osc~;
#X obj 59 146 line;
#X obj 59 251 *~;
#X obj 369 207 unpack 0 0 0;
#X obj 233 184 phasor~;
#X obj 233 232 expr~ $v1 / 2 + 0.5;
#X obj 233 208 expr~ $v1 > 0.2;
#X obj 59 275 *~;
#X msg 233 160 1200;
#X obj 59 327 *~;
#X obj 116 166 tgl 15 0 empty empty empty 17 7 0 10 -262144 -1 -1 0
1;
#X obj 233 132 loadbang;
#X msg 369 183 1000 20 100;
#X obj 46 14 inlet;
#X floatatom 59 171 5 0 0 0 - - -;
#X obj 116 137 delay;
#X floatatom 102 61 5 0 0 0 - - -;
#X floatatom 143 61 5 0 0 0 - - -;
#X floatatom 183 61 5 0 0 0 - - -;
#X obj 102 37 unpack 0 0 0;
#X msg 102 107 \$1 \, \$2 \$3;
#X obj 102 84 pack 0 0 0;
#X obj 102 13 inlet;
#X obj 316 40 r end;
#X obj 316 64 sel 1;
#X msg 316 88 0;
#X obj 46 90 AndNot;
#X connect 1 0 9 1;
#X connect 2 0 4 0;
#X connect 3 0 16 0;
#X connect 4 0 9 0;
#X connect 5 0 1 0;
#X connect 5 1 1 1;
#X connect 5 2 1 2;
#X connect 6 0 8 0;
#X connect 7 0 4 1;
#X connect 8 0 7 0;
#X connect 9 0 11 0;
#X connect 10 0 6 0;
#X connect 11 0 0 0;
#X connect 12 0 11 1;
#X connect 12 0 28 1;
#X connect 13 0 14 0;
#X connect 13 0 10 0;
#X connect 14 0 5 0;
#X connect 15 0 28 0;
#X connect 16 0 2 0;
#X connect 17 0 12 0;
#X connect 18 0 23 0;
#X connect 19 0 23 1;
#X connect 20 0 23 2;
#X connect 20 0 17 1;
#X connect 21 0 18 0;
#X connect 21 1 19 0;
#X connect 21 2 20 0;
#X connect 22 0 3 0;
#X connect 23 0 22 0;
#X connect 24 0 21 0;
#X connect 25 0 26 0;
#X connect 26 0 27 0;
#X connect 27 0 12 0;
#X connect 28 0 18 0;
#X connect 28 0 17 0;
#X connect 28 0 12 0;
