#N canvas 761 0 1150 1028 12;
#X obj 62 240 osc~;
#X obj 62 302 *~;
#X obj 62 480 dac~;
#X obj 62 160 vline~;
#X obj 128 261 vline~;
#X msg 128 215 0.05 1000 0 \, 0.07 500 1000 \, 0.01 500 2000;
#X obj 62 93 bng 15 250 50 0 empty empty empty 17 7 0 10 -262144 -1
-1;
#X obj 62 33 bng 15 250 50 0 empty empty empty 17 7 0 10 -262144 -1
-1;
#X obj 206 370 osc~;
#X obj 206 432 *~;
#X obj 206 290 vline~;
#X obj 272 391 vline~;
#X msg 272 345 0.05 1000 0 \, 0.07 500 1000 \, 0.01 500 2000;
#X msg 190 179 0.05 200;
#X msg 305 312 0.05 200;
#X obj 62 64 metro 3500;
#X msg 63 122 300 0 0 \, 500 10000 0;
#X msg 206 252 300 0 0 \, 100 10000 0;
#X connect 0 0 1 0;
#X connect 1 0 2 0;
#X connect 1 0 2 1;
#X connect 3 0 0 0;
#X connect 4 0 1 1;
#X connect 5 0 4 0;
#X connect 6 0 16 0;
#X connect 6 0 17 0;
#X connect 7 0 15 0;
#X connect 8 0 9 0;
#X connect 9 0 2 0;
#X connect 9 0 2 1;
#X connect 10 0 8 0;
#X connect 11 0 9 1;
#X connect 12 0 11 0;
#X connect 13 0 4 0;
#X connect 14 0 11 0;
#X connect 15 0 6 0;
#X connect 16 0 3 0;
#X connect 17 0 10 0;
