#N canvas -1928 -8 1920 1037 12;
#X obj 25 372 outlet~;
#X obj 313 271 FM;
#X obj 25 231 osc~;
#X obj 25 148 line;
#X obj 25 266 *~;
#X obj 313 222 unpack 0 0 0;
#X obj 177 199 phasor~;
#X obj 177 247 expr~ $v1 / 2 + 0.5;
#X obj 177 223 expr~ $v1 > 0.2;
#X obj 25 290 *~;
#X obj 25 341 *~;
#X obj 116 181 tgl 15 0 empty empty empty 17 7 0 10 -262144 -1 -1 0
1;
#X obj 177 147 loadbang;
#X floatatom 25 203 5 0 0 0 - - -;
#X obj 116 152 delay;
#X floatatom 25 78 5 0 0 0 - - -;
#X floatatom 66 78 5 0 0 0 - - -;
#X floatatom 106 78 5 0 0 0 - - -;
#X msg 25 124 \$1 \, \$2 \$3;
#X obj 25 101 pack 0 0 0;
#X obj 25 30 inlet;
#X obj 178 113 AndNot;
#X obj 178 18 r tick-\$2;
#N canvas 0 50 450 250 (subpatch) 0;
#X array \$0-linebeep 16 float 3;
#A 0 0 0 0 0 0 0 0 1 0 0 0 0 0 0 0 1;
#X coords 0 1 16 0 200 15 1 0 0;
#X restore 421 41 graph;
#X msg 422 125 0 0 0 0 0 0 0 0 0 0 0 0 0 0 0 0;
#X obj 422 90 sel 0 1 2 3 4 5;
#X obj 422 263 array set \$0-linebeep;
#X obj 422 67 r LBP-\$1;
#X obj 178 42 tabread \$0-linebeep;
#X obj 178 66 sel 1;
#X obj 178 90 t b;
#X obj 106 18 r beat-\$2;
#X obj 25 54 unpack 0 0;
#X msg 432 150 0 0 0 0 0 0 0 0 0 0 0 0 0 0 0 1;
#X msg 439 173 0 0 0 0 0 0 0 1 0 0 0 0 0 0 0 1;
#X msg 448 195 0 0 0 0 0 0 0 0 0 1 0 0 0 1 0 0;
#X msg 455 217 0 1 0 0 0 0 0 0 0 0 1 0 0 0 0 0;
#X msg 467 240 0 0 0 0 1 1 1 0 0 0 0 0 0 1 0 0;
#X obj 80 202 noise~;
#X obj 25 317 BitCrusher;
#X obj 80 224 *~ 0.15;
#X msg 177 175 800;
#X msg 313 198 800 30 100;
#X msg 92 294 6;
#X obj 206 90 s UH_LB-\$1;
#X connect 1 0 9 1;
#X connect 2 0 4 0;
#X connect 3 0 13 0;
#X connect 4 0 9 0;
#X connect 5 0 1 0;
#X connect 5 1 1 1;
#X connect 5 2 1 2;
#X connect 6 0 8 0;
#X connect 7 0 4 1;
#X connect 8 0 7 0;
#X connect 9 0 39 0;
#X connect 10 0 0 0;
#X connect 11 0 10 1;
#X connect 11 0 21 1;
#X connect 12 0 42 0;
#X connect 12 0 41 0;
#X connect 12 0 43 0;
#X connect 13 0 2 0;
#X connect 14 0 11 0;
#X connect 15 0 19 0;
#X connect 16 0 19 1;
#X connect 17 0 19 2;
#X connect 17 0 14 1;
#X connect 18 0 3 0;
#X connect 19 0 18 0;
#X connect 20 0 32 0;
#X connect 21 0 15 0;
#X connect 21 0 14 0;
#X connect 21 0 11 0;
#X connect 22 0 28 0;
#X connect 24 0 26 0;
#X connect 25 0 24 0;
#X connect 25 1 33 0;
#X connect 25 2 34 0;
#X connect 25 3 35 0;
#X connect 25 4 36 0;
#X connect 25 5 37 0;
#X connect 27 0 25 0;
#X connect 28 0 29 0;
#X connect 29 0 30 0;
#X connect 30 0 21 0;
#X connect 30 0 44 0;
#X connect 31 0 17 0;
#X connect 32 0 15 0;
#X connect 32 1 16 0;
#X connect 33 0 26 0;
#X connect 34 0 26 0;
#X connect 35 0 26 0;
#X connect 36 0 26 0;
#X connect 37 0 26 0;
#X connect 38 0 40 0;
#X connect 39 0 10 0;
#X connect 40 0 4 0;
#X connect 41 0 6 0;
#X connect 42 0 5 0;
#X connect 43 0 39 1;
