#N canvas -8 -8 1920 1037 12;
#X obj 335 566 dac~;
#X obj 6 105 bng 15 250 50 0 empty empty empty 17 7 0 10 -262144 -1
-1;
#X floatatom 6 168 5 0 0 0 - - -;
#X obj 6 124 random 2000;
#X obj 204 166 metro 150;
#X obj 204 105 bng 15 250 50 0 empty empty empty 17 7 0 10 -262144
-1 -1;
#X obj 227 119 delay 1000;
#X msg 227 143 stop;
#X obj 308 105 bng 15 250 50 0 empty empty empty 17 7 0 10 -262144
-1 -1;
#X obj 331 119 delay 1000;
#X msg 331 143 stop;
#X obj 308 166 metro 150;
#X obj 91 105 bng 15 250 50 0 empty empty empty 17 7 0 10 -262144 -1
-1;
#X obj 411 105 bng 15 250 50 0 empty empty empty 17 7 0 10 -262144
-1 -1;
#X obj 148 105 bng 15 250 50 0 empty empty empty 17 7 0 10 -262144
-1 -1;
#X obj 546 106 bng 15 250 50 0 empty empty empty 17 7 0 10 -262144
-1 -1;
#X obj 691 105 bng 15 250 50 0 empty empty empty 17 7 0 10 -262144
-1 -1;
#X obj 613 52 loadbang;
#X obj 300 21 hradio 15 1 0 8 empty empty empty 0 -8 0 10 -262144 -1
-1 0;
#X floatatom 300 41 5 0 0 0 - - -;
#X obj 339 40 sel 0 1 2 3 4 5 6 7;
#X obj 302 -28 r channel;
#X msg 302 -3 set \$1;
#N canvas -1928 -8 1920 1037 randChannel 0;
#X obj 83 26 inlet;
#X obj 183 189 s channel;
#X obj 83 50 random 100;
#X msg 83 128 0;
#X msg 147 128 1;
#X msg 210 128 2;
#X msg 273 128 3;
#X msg 336 128 4;
#X msg 399 128 5;
#X msg 462 128 6;
#X msg 515 128 7;
#X obj 83 104 moses 50;
#X obj 147 104 moses 60;
#X obj 210 104 moses 70;
#X floatatom 83 74 5 0 0 0 - - -;
#X obj 273 104 moses 76;
#X obj 336 104 moses 82;
#X obj 399 104 moses 88;
#X obj 462 104 moses 94;
#X connect 0 0 2 0;
#X connect 2 0 14 0;
#X connect 3 0 1 0;
#X connect 4 0 1 0;
#X connect 5 0 1 0;
#X connect 6 0 1 0;
#X connect 7 0 1 0;
#X connect 8 0 1 0;
#X connect 9 0 1 0;
#X connect 10 0 1 0;
#X connect 11 0 3 0;
#X connect 11 1 12 0;
#X connect 12 0 4 0;
#X connect 12 1 13 0;
#X connect 13 0 5 0;
#X connect 13 1 15 0;
#X connect 14 0 11 0;
#X connect 15 0 6 0;
#X connect 15 1 16 0;
#X connect 16 0 7 0;
#X connect 16 1 17 0;
#X connect 17 0 8 0;
#X connect 17 1 18 0;
#X connect 18 0 9 0;
#X connect 18 1 10 0;
#X restore 194 41 pd randChannel;
#X obj 27 -67 bng 15 250 50 0 empty empty empty 17 7 0 10 -262144 -1
-1;
#X msg 214 -73 stop;
#X obj 238 -26 s end;
#X msg 238 -49 1;
#X obj 148 266 Mixer_8 1;
#X msg 443 105 1500 2500 600;
#X msg 723 105 5000 12000 600;
#X obj 6 146 + 1500;
#X msg 578 106 3500 2000 600;
#X obj 411 129 Line1 1;
#X obj 546 128 Line1 2;
#X obj 691 127 Line1 3;
#X obj 6 190 Beep1 1;
#X obj 91 147 Beep1 2;
#X obj 204 213 Beep1 3;
#X obj 148 147 Beep2 1;
#X obj 308 210 Beep2 2;
#X obj 148 465 +~;
#X obj 230 488 *~ 0.7;
#X obj 230 466 delread~ del_line 100;
#X obj 42 513 delwrite~ del_line 100;
#X obj 512 278 FM;
#X obj 512 254 unpack 0 0 0;
#X obj 552 316 Mixer_8 2;
#X obj 604 278 FM;
#X obj 604 254 unpack 0 0 0;
#X obj 703 190 bng 15 250 50 0 empty empty empty 17 7 0 10 -262144
-1 -1;
#X msg 604 232 82 1 120;
#X msg 512 232 80 2 100;
#X obj 695 278 FM;
#X obj 695 254 unpack 0 0 0;
#X msg 695 232 84 3 140;
#X obj 787 278 FM;
#X obj 787 254 unpack 0 0 0;
#X obj 878 278 FM;
#X obj 878 254 unpack 0 0 0;
#X msg 746 316 \; 2-1-Volume 0.015 \; 2-2-Volume 0.015 \; 2-3-Volume
0.015 \; 2-4-Volume 0.06 \; 2-5-Volume 0.06 \; 2-11-Volume 0;
#X obj 337 538 +~;
#X obj 434 534 r record;
#X obj 434 641 writesf~ 2;
#X obj 434 558 sel 1;
#X msg 434 586 start;
#X msg 496 609 stop;
#X msg 302 -78 \; 2-11-Volume 0 \; record 0;
#X obj 506 535 r openFile;
#X obj 71 -64 delay 5000;
#X msg 787 232 86 3 20;
#X msg 878 232 88 3 40;
#X obj 194 17 metro 200;
#X msg 204 190 1800;
#X msg 308 188 2000;
#X msg 91 124 6000;
#X msg 148 124 5000;
#X msg 347 265 \; 1-1-Volume 0.5 \; 1-2-Volume 0.65 \; 1-3-Volume 1
\; 1-4-Volume 0.2 \; 1-5-Volume 0.35 \; 1-6-Volume 0.25 \; 1-7-Volume
0.3 \; 1-8-Volume 0.4 \; 1-9-Volume 1 \; 1-10-Volume 1 \; 1-11-Volume
0.2;
#X msg 27 -37 \; 2-11-Volume 0.15 \; openFile 1 \; record 1;
#X msg 506 584 open mining10.wav;
#X connect 1 0 3 0;
#X connect 2 0 36 0;
#X connect 3 0 31 0;
#X connect 4 0 73 0;
#X connect 5 0 6 0;
#X connect 5 0 4 0;
#X connect 6 0 7 0;
#X connect 7 0 4 0;
#X connect 8 0 9 0;
#X connect 8 0 11 0;
#X connect 9 0 10 0;
#X connect 10 0 11 0;
#X connect 11 0 74 0;
#X connect 12 0 75 0;
#X connect 13 0 33 0;
#X connect 14 0 76 0;
#X connect 15 0 34 0;
#X connect 16 0 35 0;
#X connect 17 0 29 0;
#X connect 17 0 32 0;
#X connect 17 0 30 0;
#X connect 17 0 50 0;
#X connect 18 0 19 0;
#X connect 19 0 20 0;
#X connect 20 0 1 0;
#X connect 20 1 12 0;
#X connect 20 2 14 0;
#X connect 20 3 5 0;
#X connect 20 4 8 0;
#X connect 20 5 13 0;
#X connect 20 6 15 0;
#X connect 20 7 16 0;
#X connect 21 0 22 0;
#X connect 22 0 18 0;
#X connect 24 0 69 0;
#X connect 24 0 72 0;
#X connect 25 0 27 0;
#X connect 25 0 72 0;
#X connect 27 0 26 0;
#X connect 28 0 41 0;
#X connect 29 0 33 1;
#X connect 30 0 35 1;
#X connect 31 0 2 0;
#X connect 32 0 34 1;
#X connect 33 0 28 5;
#X connect 34 0 28 6;
#X connect 35 0 28 7;
#X connect 36 0 28 0;
#X connect 37 0 28 1;
#X connect 38 0 28 3;
#X connect 39 0 28 2;
#X connect 40 0 28 4;
#X connect 41 0 44 0;
#X connect 41 0 61 0;
#X connect 42 0 41 1;
#X connect 43 0 42 0;
#X connect 45 0 47 0;
#X connect 46 0 45 0;
#X connect 46 1 45 1;
#X connect 46 2 45 2;
#X connect 47 0 61 1;
#X connect 48 0 47 1;
#X connect 49 0 48 0;
#X connect 49 1 48 1;
#X connect 49 2 48 2;
#X connect 50 0 51 0;
#X connect 50 0 52 0;
#X connect 50 0 55 0;
#X connect 50 0 70 0;
#X connect 50 0 71 0;
#X connect 50 0 60 0;
#X connect 50 0 77 0;
#X connect 51 0 49 0;
#X connect 52 0 46 0;
#X connect 53 0 47 2;
#X connect 54 0 53 0;
#X connect 54 1 53 1;
#X connect 54 2 53 2;
#X connect 55 0 54 0;
#X connect 56 0 47 3;
#X connect 57 0 56 0;
#X connect 57 1 56 1;
#X connect 57 2 56 2;
#X connect 58 0 47 4;
#X connect 59 0 58 0;
#X connect 59 1 58 1;
#X connect 59 2 58 2;
#X connect 61 0 0 0;
#X connect 61 0 0 1;
#X connect 61 0 63 0;
#X connect 61 0 63 1;
#X connect 62 0 64 0;
#X connect 64 0 65 0;
#X connect 64 1 66 0;
#X connect 65 0 63 0;
#X connect 66 0 63 0;
#X connect 68 0 79 0;
#X connect 69 0 25 0;
#X connect 70 0 57 0;
#X connect 71 0 59 0;
#X connect 72 0 23 0;
#X connect 72 0 18 0;
#X connect 73 0 38 0;
#X connect 74 0 40 0;
#X connect 75 0 37 0;
#X connect 76 0 39 0;
#X connect 79 0 63 0;
