#N canvas 102 80 958 805 12;
#X obj 100 103 vsl 15 128 0 1 0 0 empty empty empty 0 -9 0 10 -261682
-1 -1 0 1;
#X obj 100 270 tgl 15 0 empty empty empty 17 7 0 10 -261234 -1 -1 1
1;
#X obj 41 195 inlet~;
#X obj 41 228 *~;
#X obj 41 259 *~;
#X obj 100 236 tgl 15 0 empty empty empty 17 7 0 10 -232576 -1 -1 1
1;
#X obj 41 318 *~;
#X obj 130 317 *~;
#X obj 100 253 tgl 15 0 empty empty empty 17 7 0 10 -232576 -1 -1 1
1;
#X obj 189 57 loadbang;
#X msg 188 215 1;
#X msg 138 76 0;
#X obj 203 110 receive \$1-\$2-Volume;
#X obj 204 135 receive \$1-\$2-Left;
#X obj 204 161 receive \$1-\$2-Right;
#X obj 204 186 receive \$1-\$2-Stereo;
#X obj 41 373 throw~ \$1-busL;
#X obj 145 373 throw~ \$1-busR;
#X connect 0 0 3 1;
#X connect 1 0 4 1;
#X connect 1 0 8 0;
#X connect 1 0 5 0;
#X connect 2 0 3 0;
#X connect 3 0 4 0;
#X connect 4 0 6 0;
#X connect 4 0 7 0;
#X connect 5 0 6 1;
#X connect 6 0 16 0;
#X connect 7 0 17 0;
#X connect 8 0 7 1;
#X connect 9 0 11 0;
#X connect 9 0 10 0;
#X connect 10 0 1 0;
#X connect 10 0 8 0;
#X connect 10 0 5 0;
#X connect 11 0 0 0;
#X connect 12 0 0 0;
#X connect 13 0 5 0;
#X connect 14 0 8 0;
#X connect 15 0 1 0;
#X coords 0 -1 1 1 15 186 2 100 100;
