#N canvas 953 0 958 1028 12;
#X obj 100 103 vsl 15 128 0 1 0 0 empty empty empty 0 -9 0 10 -262130
-1 -1 12700 1;
#X obj 100 270 tgl 15 0 empty empty empty 17 7 0 10 -261234 -1 -1 1
1;
#X obj 41 195 inlet~;
#X obj 41 228 *~;
#X obj 41 259 *~;
#X obj 189 57 loadbang;
#X obj 41 373 outlet~;
#X obj 187 123 receive \$1-\$2-Volume;
#X obj 187 149 receive \$1-\$2-Stereo;
#X msg 138 76 1;
#X connect 0 0 3 1;
#X connect 1 0 4 1;
#X connect 2 0 3 0;
#X connect 3 0 4 0;
#X connect 4 0 6 0;
#X connect 5 0 9 0;
#X connect 5 0 1 0;
#X connect 7 0 0 0;
#X connect 8 0 1 0;
#X connect 9 0 0 0;
#X coords 0 -1 1 1 15 186 2 100 100;
