#N canvas -1856 44 1257 1028 12;
#X obj 20 25 inlet~;
#X obj 69 25 inlet~;
#X obj 118 25 inlet~;
#X obj 167 25 inlet~;
#X obj 216 25 inlet~;
#X obj 265 25 inlet~;
#X obj 314 25 inlet~;
#X obj 363 25 inlet~;
#X obj 239 413 outlet~;
#X obj 296 413 outlet~;
#X obj 275 107 vsl 15 128 0 1 0 0 empty empty empty 0 -9 0 10 -204786
-1 -1 0 1;
#X obj 275 275 tgl 15 0 empty empty empty 17 7 0 10 -204786 -1 -1 1
1;
#X obj 239 326 *~;
#X obj 287 326 *~;
#X obj 239 368 *~;
#X obj 287 368 *~;
#X obj 101 104 Mixer_1 \$1 1;
#X obj 118 104 Mixer_1 \$1 2;
#X obj 135 104 Mixer_1 \$1 3;
#X obj 152 104 Mixer_1 \$1 4;
#X obj 169 104 Mixer_1 \$1 5;
#X obj 186 104 Mixer_1 \$1 6;
#X obj 203 104 Mixer_1 \$1 7;
#X obj 220 104 Mixer_1 \$1 8;
#X obj 295 74 catch~ \$1-busL;
#X obj 400 74 catch~ \$1-busR;
#X obj 239 105 Mixer_1_Let \$1 9;
#X obj 256 105 Mixer_1_Let \$1 10;
#X obj 330 118 receive \$1-11-Volume;
#X obj 330 141 receive \$1-11-Stereo;
#X obj 382 202 loadbang;
#X msg 382 228 1;
#X connect 0 0 16 0;
#X connect 1 0 17 0;
#X connect 2 0 18 0;
#X connect 3 0 19 0;
#X connect 4 0 20 0;
#X connect 5 0 21 0;
#X connect 6 0 22 0;
#X connect 7 0 23 0;
#X connect 10 0 12 1;
#X connect 10 0 13 1;
#X connect 11 0 15 1;
#X connect 11 0 14 1;
#X connect 12 0 14 0;
#X connect 13 0 15 0;
#X connect 14 0 8 0;
#X connect 15 0 9 0;
#X connect 24 0 26 0;
#X connect 25 0 27 0;
#X connect 26 0 12 0;
#X connect 27 0 13 0;
#X connect 28 0 10 0;
#X connect 29 0 11 0;
#X connect 30 0 11 0;
#X connect 30 0 31 0;
#X connect 31 0 10 0;
#X coords 0 -1 1 1 190 194 2 100 100;
