#N canvas -1928 -8 1920 1037 12;
#X obj 71 189 phasor~;
#X floatatom 71 101 5 0 0 0 - - -;
#X obj 232 116 phasor~;
#X msg 140 280 1.5;
#X obj 71 375 *~;
#X obj 152 343 vline~;
#X obj 71 463 outlet~;
#X obj 232 93 * 1.001;
#X obj 108 252 loadbang;
#X obj 71 16 inlet;
#X obj 71 66 mtof;
#X floatatom 153 71 5 0 0 0 - - -;
#X obj 71 42 unpack 0 0;
#X msg 152 317 1 10 \, 0 \$1 10;
#X obj 71 241 *~ 1;
#X obj 71 312 bob~;
#X obj 71 213 expr~ $v1 * 2 + 1;
#X obj 232 140 expr~ $v1 * 2 + 1;
#X msg 108 280 300;
#X floatatom 232 198 5 0 0 0 - - -;
#X obj 232 221 / 127;
#X obj 232 245 pow 4;
#X obj 232 269 * 1000;
#X obj 232 293 + 20;
#X obj 89 129 r MonoSynthOffset;
#X obj 71 155 +;
#X obj 71 437 BitCrusher;
#X msg 138 401 5;
#X obj 232 174 r MonoSynthCutOff;
#X obj 138 373 r MonoSynthBitDepth;
#X connect 0 0 16 0;
#X connect 1 0 7 0;
#X connect 1 0 25 0;
#X connect 2 0 17 0;
#X connect 3 0 15 2;
#X connect 4 0 26 0;
#X connect 5 0 4 1;
#X connect 7 0 2 0;
#X connect 8 0 18 0;
#X connect 8 0 3 0;
#X connect 8 0 27 0;
#X connect 9 0 12 0;
#X connect 10 0 1 0;
#X connect 11 0 13 0;
#X connect 12 0 10 0;
#X connect 12 1 11 0;
#X connect 13 0 5 0;
#X connect 14 0 15 0;
#X connect 15 0 4 0;
#X connect 16 0 14 0;
#X connect 18 0 15 1;
#X connect 19 0 20 0;
#X connect 20 0 21 0;
#X connect 21 0 22 0;
#X connect 22 0 23 0;
#X connect 23 0 15 1;
#X connect 24 0 25 1;
#X connect 25 0 0 0;
#X connect 26 0 6 0;
#X connect 27 0 26 1;
#X connect 28 0 19 0;
#X connect 29 0 27 0;
