#N canvas -1928 -8 1920 1037 12;
#X obj 47 254 pack 0 0 0;
#X obj 76 226 + 1;
#X obj 47 226 i;
#X obj 105 226 % 16;
#X obj 47 278 clone MonoSynth 16;
#X obj 47 165 t b f;
#X obj 47 302 outlet~;
#X text 302 32745 middle Do = 60;
#X obj 301 224 array set \$0-midi;
#N canvas 0 50 450 250 (subpatch) 0;
#X array \$0-midi 16 float 3;
#A 0 0 0 0 0 0 0 0 0 0 0 0 0 0 0 0 0;
#X coords 0 100 16 30 200 140 1 0 0;
#X restore 234 276 graph;
#N canvas 0 50 450 250 (subpatch) 0;
#X array \$0-duration 8 float 3;
#A 0 0 73.622 147.244 294.488 588.976 1177.95 1472.44 4417.32;
#X coords 0 10000 8 0 200 140 1 0 0;
#X restore 653 276 graph;
#X obj 15 61 tabread \$0-midi;
#X obj 129 468 r beat;
#X floatatom 192 520 5 0 0 0 - - -;
#X floatatom 110 520 5 0 0 0 - - -;
#X floatatom 152 520 5 0 0 0 - - -;
#X floatatom 232 520 5 0 0 0 - - -;
#X floatatom 272 520 5 0 0 0 - - -;
#X obj 61 591 array set \$0-duration;
#N canvas 0 50 450 250 (subpatch) 0;
#X array \$0-dur 16 float 3;
#A 0 0 0 0 0 0 0 0 0 0 0 0 0 0 0 0 0;
#X coords 0 7 16 0 200 140 1 0 0;
#X restore 440 276 graph;
#X obj 625 224 array set \$0-dur;
#X obj 126 61 tabread \$0-dur;
#X obj -153 155 spigot;
#X floatatom 15 88 5 0 0 0 - - -;
#X obj 126 110 tabread \$0-duration;
#X floatatom 24 520 5 0 0 0 - - -;
#X obj 24 495 * 0;
#X floatatom 126 85 5 0 0 0 - - -;
#X floatatom 156 22 5 0 0 0 - - -;
#X floatatom 65 520 5 0 0 0 - - -;
#X obj 65 494 * 0.5;
#X obj 110 494 * 1;
#X obj 152 494 * 2;
#X obj 192 494 * 4;
#X obj 232 494 * 8;
#X obj 272 494 * 10;
#X obj 15 111 sel 0;
#X floatatom 126 134 5 0 0 0 - - -;
#X msg 199 22 1;
#X obj 47 199 delay 1;
#X floatatom 313 520 5 0 0 0 - - -;
#X obj 313 494 * 30;
#X obj 61 566 pack 0 0 0 0 0 0 0 0;
#X msg 301 78 0 0 0 0 0 0 0 0 0 0 0 0 0 0 0 0;
#X msg 625 76 0 0 0 0 0 0 0 0 0 0 0 0 0 0 0 0;
#X msg 319 126 75 0 75 0 75 75 78 0 75 0 75 0 75 78 73 0;
#X msg 640 125 2 0 2 0 2 2 3 0 2 0 2 0 2 2 3 0;
#X msg 314 102 75 75 0 75 75 75 78 0 75 75 0 75 75 75 80 0;
#X msg 634 101 2 2 0 2 2 2 3 0 2 2 0 2 2 2 3 0;
#X msg 327 149 76 76 0 76 76 76 79 0 76 76 0 76 76 72 74 0;
#X msg 649 149 3 3 0 3 3 3 4 0 3 3 0 3 3 3 4 0;
#X obj 445 32 sel 0 1 2 3 4 5;
#X msg 334 173 76 76 0 0 76 79 76 0 76 76 76 0 76 83 81 0;
#X msg 660 172 3 3 0 0 3 3 3 0 3 3 3 0 3 3 3 0;
#X msg 671 196 3 3 3 3 3 3 3 3 3 3 3 3 3 3 3 3;
#X msg 342 196 64 66 71 73 74 66 64 73 71 66 64 71 64 71 74 73;
#X obj 15 20 r tick-\$2;
#X obj 445 9 r PP-\$1;
#X connect 0 0 4 0;
#X connect 1 0 3 0;
#X connect 2 0 1 0;
#X connect 2 0 0 0;
#X connect 3 0 2 1;
#X connect 4 0 6 0;
#X connect 5 0 39 0;
#X connect 5 1 0 1;
#X connect 11 0 23 0;
#X connect 12 0 26 0;
#X connect 12 0 31 0;
#X connect 12 0 32 0;
#X connect 12 0 33 0;
#X connect 12 0 34 0;
#X connect 12 0 35 0;
#X connect 12 0 30 0;
#X connect 12 0 41 0;
#X connect 13 0 42 4;
#X connect 14 0 42 2;
#X connect 15 0 42 3;
#X connect 16 0 42 5;
#X connect 17 0 42 6;
#X connect 21 0 27 0;
#X connect 23 0 36 0;
#X connect 24 0 37 0;
#X connect 25 0 42 0;
#X connect 26 0 25 0;
#X connect 27 0 24 0;
#X connect 28 0 21 0;
#X connect 28 0 11 0;
#X connect 29 0 42 1;
#X connect 30 0 29 0;
#X connect 31 0 14 0;
#X connect 32 0 15 0;
#X connect 33 0 13 0;
#X connect 34 0 16 0;
#X connect 35 0 17 0;
#X connect 36 1 5 0;
#X connect 37 0 0 2;
#X connect 38 0 28 0;
#X connect 39 0 2 0;
#X connect 40 0 42 7;
#X connect 41 0 40 0;
#X connect 42 0 18 0;
#X connect 43 0 8 0;
#X connect 44 0 20 0;
#X connect 45 0 8 0;
#X connect 46 0 20 0;
#X connect 47 0 8 0;
#X connect 48 0 20 0;
#X connect 49 0 8 0;
#X connect 50 0 20 0;
#X connect 51 0 43 0;
#X connect 51 0 44 0;
#X connect 51 1 47 0;
#X connect 51 1 48 0;
#X connect 51 2 45 0;
#X connect 51 2 46 0;
#X connect 51 3 49 0;
#X connect 51 3 50 0;
#X connect 51 4 52 0;
#X connect 51 4 53 0;
#X connect 51 5 54 0;
#X connect 51 5 55 0;
#X connect 52 0 8 0;
#X connect 53 0 20 0;
#X connect 54 0 20 0;
#X connect 55 0 8 0;
#X connect 56 0 11 0;
#X connect 56 0 21 0;
#X connect 57 0 51 0;
