#N canvas -1384 0 1375 1028 12;
#X obj 19 242 phasor~;
#X obj 19 378 outlet~;
#X obj 187 296 A_D_S_R;
#X obj 208 242 unpack 0 0 0 0;
#X obj 208 189 loadbang;
#X obj 187 179 tgl 15 0 empty empty empty 17 7 0 10 -262144 -1 -1 0
1;
#X obj 19 337 *~;
#X obj 187 150 delay;
#X obj 100 80 t b;
#X obj 100 29 tabread \$0-snaredrum;
#N canvas 0 50 450 250 (subpatch) 0;
#X array \$0-snaredrum 16 float 3;
#A 0 0 0 0 0 1 0 0 0 0 0 0 0 1 0 0 0;
#X coords 0 1 16 0 200 15 1 0 0;
#X restore 343 79 graph;
#X floatatom 219 126 5 0 0 0 - - -;
#X obj 19 218 line~;
#X obj 100 104 AndNot;
#X obj 100 53 sel 1;
#X msg 344 163 0 0 0 0 0 0 0 0 0 0 0 0 0 0 0 0;
#X obj 344 301 array set \$0-snaredrum;
#X msg 362 211 0 0 0 0 1 1 1 1 0 0 0 0 1 0 0 1;
#X msg 354 188 0 0 0 0 1 0 0 0 0 0 0 0 1 0 0 0;
#X msg 369 233 0 0 0 0 1 0 0 0 0 1 1 0 0 0 1 0;
#X obj 344 128 sel 0 1 2 3 4 5;
#X msg 377 255 0 1 1 0 0 1 0 0 0 0 0 1 0 0 1 0;
#X msg 387 277 0 0 0 0 0 1 1 1 0 0 0 0 0 1 0 0;
#X obj 100 6 r tick-\$2;
#X obj 219 78 r beat-\$2;
#X obj 344 105 r SDP-\$1;
#X obj 110 242 osc~;
#X msg 156 218 0;
#X obj 110 218 line~;
#X obj 219 102 * 0.8;
#X msg 208 218 5 20 0.5 10;
#X obj 19 266 expr~ ($v1 > 0.4)*2-1;
#X msg 19 194 200 \, 10 \$1;
#X obj 19 290 *~ 0.1;
#X msg 110 194 440 \, 330 \$1;
#X connect 0 0 31 0;
#X connect 2 0 6 1;
#X connect 3 0 2 1;
#X connect 3 1 2 2;
#X connect 3 2 2 3;
#X connect 3 3 2 4;
#X connect 4 0 30 0;
#X connect 5 0 2 0;
#X connect 5 0 13 1;
#X connect 6 0 1 0;
#X connect 7 0 5 0;
#X connect 8 0 13 0;
#X connect 9 0 14 0;
#X connect 11 0 7 1;
#X connect 11 0 32 0;
#X connect 11 0 34 0;
#X connect 12 0 0 0;
#X connect 13 0 5 0;
#X connect 13 0 7 0;
#X connect 13 0 11 0;
#X connect 13 0 27 0;
#X connect 14 0 8 0;
#X connect 15 0 16 0;
#X connect 17 0 16 0;
#X connect 18 0 16 0;
#X connect 19 0 16 0;
#X connect 20 0 15 0;
#X connect 20 1 18 0;
#X connect 20 2 17 0;
#X connect 20 3 19 0;
#X connect 20 4 21 0;
#X connect 20 5 22 0;
#X connect 21 0 16 0;
#X connect 22 0 16 0;
#X connect 23 0 9 0;
#X connect 24 0 29 0;
#X connect 25 0 20 0;
#X connect 26 0 6 0;
#X connect 27 0 26 1;
#X connect 28 0 26 0;
#X connect 29 0 11 0;
#X connect 30 0 3 0;
#X connect 31 0 33 0;
#X connect 32 0 12 0;
#X connect 33 0 6 0;
#X connect 34 0 28 0;
