#N canvas 0 50 450 300 12;
#X obj 28 112 mtof;
#X obj 28 146 osc~;
#X obj 28 194 *~;
#N canvas 112 212 622 632 adsr 0;
#X obj 39 18 inlet;
#X obj 104 100 delay;
#X obj 38 100 / 127;
#X obj 107 50 inlet;
#X obj 150 50 inlet;
#X obj 193 50 inlet;
#X obj 236 50 inlet;
#X obj 39 67 t b a;
#X obj 38 124 pack 0 0;
#X msg 38 148 \$1 \$2;
#X obj 97 173 pack 0 0;
#X obj 122 124 *;
#X obj 104 148 f;
#X msg 97 197 \$1 \$2;
#X obj 38 236 line~;
#X msg 196 184 0 \$1;
#X obj 196 153 i;
#X obj 39 42 sel 0;
#X obj 38 260 outlet~;
#X connect 0 0 17 0;
#X connect 1 0 12 0;
#X connect 2 0 8 0;
#X connect 2 0 11 0;
#X connect 3 0 1 1;
#X connect 3 0 8 1;
#X connect 4 0 10 1;
#X connect 5 0 11 1;
#X connect 6 0 16 1;
#X connect 7 0 1 0;
#X connect 7 1 2 0;
#X connect 8 0 9 0;
#X connect 9 0 14 0;
#X connect 10 0 13 0;
#X connect 11 0 12 1;
#X connect 13 0 14 0;
#X connect 14 0 18 0;
#X connect 15 0 14 0;
#X connect 16 0 15 0;
#X connect 17 0 16 0;
#X connect 17 1 7 0;
#X restore 95 145 pd adsr;
#X floatatom 101 106 5 0 0 0 - adsr_a -;
#X floatatom 140 106 5 0 0 0 - adsr_d -;
#X floatatom 179 106 5 0 0 0 - adsr_s -;
#X floatatom 218 106 5 0 0 0 - adsr_r -;
#X obj 28 54 inlet;
#X obj 28 228 outlet~;
#X obj 28 78 unpack 0 0;
#X connect 0 0 1 0;
#X connect 1 0 2 0;
#X connect 2 0 9 0;
#X connect 3 0 2 1;
#X connect 4 0 3 1;
#X connect 5 0 3 2;
#X connect 6 0 3 3;
#X connect 7 0 3 4;
#X connect 8 0 10 0;
#X connect 10 0 0 0;
#X connect 10 1 3 0;
